<svg viewBox="0 0 12 12" fill="none" width="32" height="32" xmlns="http://www.w3.org/2000/svg" xmlns:xlink="http://www.w3.org/1999/xlink">
    <g clip-path="url(#movie_clip0_1_13)">
        <path fill="#fff" clip-rule="evenodd" d="M12.1017-0.2893l0.1364 0c0.2584 0 0.4679 0.2154 0.4678 0.4811v11.2518c0 0.2657-0.2094 0.4811-0.4677 0.4811h-0.1364c-0.027 0-0.0631 0.0121-0.0983 0.0239-0.0631 0.0212-0.1233 0.0415-0.1233-0.0107 0-0.0812-0.2016 0-0.2016 0h-0.547-0.763c-0.1063 0-0.3686-0.0132-0.3686-0.0132s-0.1327-0.0831-0.1327 0c0 0.0528-0.0264 0.0438-0.0665 0.0303-0.0229-78e-4-0.0503-0.0171-0.0798-0.0171H2.3615c-0.032 0-0.0615 0.013-0.0856 0.0236-0.0368 0.0162-0.0608 0.0267-0.0608-0.0236H2.0909c0-0.0372-54e-4-0.0309-0.0171-0.0172C2.0594 11.9376 2.0355 11.9658 2 11.9379c-0.0459-0.036-0.0592-0.0298-0.0836-0.0186-0.0173 8e-3-0.0402 0.0186-0.0843 0.0186H0.6225 0.3202 0.133c0 0.089-0.0282 0.0655-0.0671 0.033-0.0254-0.0212-0.0555-0.0462-0.0853-0.0462h-0.1363c-0.2583 0-0.4677-0.2154-0.4677-0.4811l0-11.2518c0-0.2657 0.2094-0.4811 0.4677-0.4811l0.1366 0 0.1364 0 0.3503 0 0.2454 0 0.8173 0 0.4513 0 0.3181 0 0.1365 0 0.1364 0 6.9375 0 0.1364 0 0.2012 0 0.1523 0 0.3945 0 0.9962 0 0.4607 0zM2.3615 11.2477c0.2582 0 0.462-0.2154 0.462-0.4811l0-1.264c0-0.2656-0.2656-0.4999-0.5238-0.4999l-1.2895 0c-0.2583 0-0.5426 0.2907-0.5426 0.5563l0 1.2076c0 0.2657 0.2843 0.4811 0.5426 0.4811zM2.2997 5.8654c0.2582 0 0.5238-0.2154 0.5238-0.481l0-1.2829c0-0.2656-0.2656-0.481-0.5238-0.481L1.0102 3.617c-0.2583 0-0.5426 0.2801-0.5426 0.5458l0 1.2216c0 0.2656 0.2843 0.481 0.5426 0.481zM2.3321 3.1677c0.2583 0 0.5238-0.2154 0.5238-0.4811l0-1.2828c0-0.2657-0.2655-0.4811-0.5238-0.4811l-1.2895 0C0.7843 0.9227 0.5 1.159 0.5 1.4247v1.2619c0 0.2657 0.2843 0.4811 0.5426 0.4811zM9.0293 11.2477l0-1.0103 0-3.3606 0-0.8975 0-1.3277 0-3.2269 0-0.5347L6 0.89l-2.9469 0 0 0.5347 0 3.2269 0 1.3277 0 0.8975 0 3.3606 0 1.0103h2.9881zM2.3615 8.5654c0.2582 0 0.462-0.2154 0.462-0.481l0-1.264c0-0.2656-0.2656-0.5-0.5238-0.5l-1.2895 0c-0.2583 0-0.5426 0.2907-0.5426 0.5564l0 1.2076c0 0.2656 0.2843 0.481 0.5426 0.481zM11.6786 2.6866c0 0.2657-0.2656 0.4811-0.5239 0.4811l-1.2894 0c-0.2583 0-0.5426-0.2154-0.5426-0.4811l0-1.2619c0-0.2657 0.2843-0.502 0.5426-0.502l1.2894 0c0.2583 0 0.5239 0.2154 0.5239 0.481zM11.1223 5.8654c0.2583 0 0.5239-0.2154 0.5239-0.481V4.1015c0-0.2657-0.2656-0.481-0.5239-0.481L9.8329 3.617c-0.2583 0-0.5427 0.2801-0.5427 0.5458l0 1.2216c0 0.2656 0.2844 0.481 0.5427 0.481zM11.6462 8.0844c0 0.2656-0.2038 0.481-0.4621 0.481l-1.3512 0c-0.2583 0-0.5427-0.2154-0.5427-0.481l0-1.2076c0-0.2657 0.2844-0.5564 0.5427-0.5564l1.2894 0c0.2583 0 0.5239 0.2344 0.5239 0.5zM11.1841 11.2477c0.2583 0 0.4621-0.2154 0.4621-0.4811v-1.264c0-0.2656-0.2656-0.4999-0.5239-0.4999l-1.2894 0c-0.2583 0-0.5427 0.2907-0.5427 0.5563l0 1.2076c0 0.2657 0.2844 0.4811 0.5427 0.4811z" fill-rule="evenodd" />
        <path stroke="#fff" d="M12.2381-0.2893c0 0-0.061 0-0.1364 0M11.1316 11.9379c0.2582 0 0.547 0 0.547 0s0.2016-0.0812 0.2016 0c0 0.0522 0.0602 0.0319 0.1233 0.0107 0.0352-0.0118 0.0713-0.0239 0.0983-0.0239h0.1364c0.2583 0 0.4677-0.2154 0.4677-0.4811V0.1918c1e-4-0.2657-0.2093-0.4811-0.4678-0.4811M12.2381-0.2893l-0.1364 0M12.1017-0.2893c-0.0753 0 0-0.0812 0 0zM12.1017-0.2893l-0.2503 0M11.8514-0.2893c0 0-0.2024 0-0.4607 0M10-0.2893c0 0 0.1363 0 0.3945 0l0.9962 0 0.4607 0M9.6465-0.2893l0.2012 0 0.1523 0 0.3945 0M9.8477-0.2893c0 0-0.1259 0-0.2012 0M9.6465-0.2893l-0.1364 0-6.9375 0M2.5726-0.2893c0 0-0.061 0-0.1364 0M2.5726-0.2893l-0.1364 0M2.4362-0.2893c-0.0754 0-0.1365 0-0.1365 0M2.4362-0.2893l-0.1365 0M2.2997-0.2893l-0.3181 0M1.9816-0.2893c0 0-0.193 0-0.4513 0M1.9816-0.2893l-0.4513 0M1.5303-0.2893l-0.8173 0M0.713-0.2893c-0.2583 0-0.2454 0-0.2454 0M0.713-0.2893l-0.2454 0M0.4676-0.2893l-0.3503 0M0.1173-0.2893c0 0-0.061 0-0.1364 0M0.1173-0.2893l-0.1364 0M-0.0191-0.2893l-0.1366 0c-0.2583 0-0.4677 0.2154-0.4677 0.4811l0 11.2518c0 0.2657 0.2094 0.4811 0.4677 0.4811M-0.1557 11.9247c0 0 0.061 0 0.1363 0M-0.1557 11.9247h0.1363M-0.0194 11.9247c0.0298 0 0.0599 0.025 0.0853 0.0462 0.0389 0.0325 0.0671 0.056 0.0671-0.033h0.1872M0.3202 11.9379c0 0 0.044 0 0.3023 0M0.3202 11.9379h0.3023M0.6225 11.9379h1.2096c0.0441 0 0.067-0.0106 0.0843-0.0186C1.9408 11.9081 1.9541 11.9019 2 11.9379c0.0354 0.0279 0.0594-3e-4 0.0738-0.0172 0.0117-0.0137 0.0171-0.02 0.0171 0.0172h0.1242c0 0.0503 0.024 0.0398 0.0608 0.0236 0.0241-0.0106 0.0536-0.0236 0.0856-0.0236H9.721c0.0295 0 0.0569 93e-4 0.0798 0.0171 0.0401 0.0135 0.0665 0.0225 0.0665-0.0303 0-0.0831 0.1327 0 0.1327 0s0.2623 0.0132 0.3686 0.0132h0.763M11.1316 11.9379h0.547M9.0293 10.2374c0 0.0831 0 1.0103 0 1.0103M9.0293 10.2374l0-3.3606 0-0.8975M3.0531 10.2374c0 0.0831 0 1.0103 0 1.0103h2.9881 2.9881l0-1.0103M3.0531 11.2477l0-1.0103M3.0531 10.2374l0-3.3606M3.0531 6.8768c0-0.0831 0-0.8975 0-0.8975M3.0531 6.8768l0-0.8975M3.0531 5.9793c0 0.6795 0-1.2446 0-1.3277M3.0531 5.9793l2.9881 0 2.9881 0M3.0531 5.9793l0-1.3277M9.0293 5.9793c0 0 0-1.2446 0-1.3277M9.0293 5.9793l0-1.3277M9.0293 4.6516l0-3.2269M3.0531 4.6516l0-3.2269M3.0531 1.4247c0-0.0831 0-0.5347 0-0.5347M9.0293 1.4247c0-0.0371 0-0.5347 0-0.5347L6 0.89l-2.9469 0 0 0.5347M9.0293 0.89l0 0.5347M2.8235 10.7666c0 0.2657-0.2038 0.4811-0.462 0.4811H1.0102c-0.2583 0-0.5426-0.2154-0.5426-0.4811l0-1.2076c0-0.2656 0.2843-0.5563 0.5426-0.5563l1.2895 0c0.2582 0 0.5238 0.2343 0.5238 0.4999zM2.8235 5.3844c0 0.2656-0.2656 0.481-0.5238 0.481l-1.2895 0c-0.2583 0-0.5426-0.2154-0.5426-0.481l0-1.2216c0-0.2657 0.2843-0.5458 0.5426-0.5458l1.2895 35e-4c0.2582 0 0.5238 0.2153 0.5238 0.481zM2.856 2.6866c-1e-4 0.2657-0.2656 0.4811-0.5239 0.4811l-1.2895 0C0.7843 3.1677 0.5 2.9523 0.5 2.6866V1.4247c0-0.2657 0.2843-0.502 0.5426-0.502l1.2895 0c0.2583 0 0.5238 0.2154 0.5238 0.4811zM2.8235 8.0844c0 0.2656-0.2038 0.481-0.462 0.481l-1.3513 0c-0.2583 0-0.5426-0.2154-0.5426-0.481l0-1.2076c0-0.2657 0.2843-0.5564 0.5426-0.5564l1.2895 0c0.2582 0 0.5238 0.2344 0.5238 0.5zM11.6462 10.7666c0 0.2657-0.2038 0.4811-0.4621 0.4811H9.8329c-0.2583 0-0.5427-0.2154-0.5427-0.4811l0-1.2076c0-0.2656 0.2844-0.5563 0.5427-0.5563l1.2894 0c0.2583 0 0.5239 0.2343 0.5239 0.4999zM11.6462 5.3844c0 0.2656-0.2656 0.481-0.5239 0.481l-1.2894 0c-0.2583 0-0.5427-0.2154-0.5427-0.481l0-1.2216c0-0.2657 0.2844-0.5458 0.5427-0.5458l1.2894 35e-4c0.2583 0 0.5239 0.2153 0.5239 0.481zM11.6786 2.6866c0 0.2657-0.2656 0.4811-0.5239 0.4811l-1.2894 0c-0.2583 0-0.5426-0.2154-0.5426-0.4811l0-1.2619c0-0.2657 0.2843-0.502 0.5426-0.502l1.2894 0c0.2583 0 0.5239 0.2154 0.5239 0.481zM11.6462 8.0844c0 0.2656-0.2038 0.481-0.4621 0.481l-1.3512 0c-0.2583 0-0.5427-0.2154-0.5427-0.481l0-1.2076c0-0.2657 0.2844-0.5564 0.5427-0.5564l1.2894 0c0.2583 0 0.5239 0.2344 0.5239 0.5z" />
    </g>
    <defs>
        <clipPath id="movie_clip0_1_13">
            <rect fill="#fff" width="12" height="12" rx="2" />
        </clipPath>
    </defs>
</svg>