<svg aria-hidden="true" style="position: absolute; width: 0; height: 0; overflow: hidden;" version="1.1" xmlns="http://www.w3.org/2000/svg" xmlns:xlink="http://www.w3.org/1999/xlink">
<defs>
<symbol id="icon-avatar" viewBox="0 0 29 32">
<path d="M14.328 12.761c3.495 0 6.328-2.857 6.328-6.38s-2.833-6.38-6.328-6.38c-3.495 0-6.328 2.857-6.328 6.38s2.833 6.38 6.328 6.38z"></path>
<path d="M18.984 16h-8.636c-5.715 0-10.349 3.002-10.349 6.706v9.294h29.333v-9.294c0-3.704-4.634-6.706-10.349-6.706z"></path>
</symbol>
<symbol id="icon-clock" viewBox="0 0 32 32">
<path d="M16 0c-8.836 0-16 7.164-16 16s7.164 16 16 16c8.836 0 16-7.164 16-16s-7.164-16-16-16zM13.781 7.948h1.956c0.357 0 0.651 0.294 0.651 0.651v7.536h6.878c0.359 0 0.651 0.294 0.651 0.651v1.956c0 0.359-0.294 0.651-0.651 0.651h-10.138v-10.794c0-0.359 0.294-0.651 0.654-0.651zM16 3.633c6.831 0 12.367 5.536 12.367 12.367s-5.536 12.367-12.367 12.367c-6.831 0-12.367-5.536-12.367-12.367 0-6.828 5.536-12.367 12.367-12.367z"></path>
</symbol>
<symbol id="icon-close_menu" viewBox="0 0 33 32">
<path stroke-linejoin="miter" stroke-linecap="butt" stroke-miterlimit="4" stroke-width="1.28" d="M7.227 25.147l17.92-17.92"></path>
<path stroke-linejoin="miter" stroke-linecap="butt" stroke-miterlimit="4" stroke-width="1.28" d="M6.853 7.227l17.92 17.92"></path>
</symbol>
<symbol id="icon-date" viewBox="0 0 32 32">
<path stroke-linejoin="round" stroke-linecap="round" stroke-miterlimit="4" stroke-width="3.2" d="M25.333 5.333h-18.667c-1.473 0-2.667 1.194-2.667 2.667v18.667c0 1.473 1.194 2.667 2.667 2.667h18.667c1.473 0 2.667-1.194 2.667-2.667v-18.667c0-1.473-1.194-2.667-2.667-2.667z"></path>
<path stroke-linejoin="round" stroke-linecap="round" stroke-miterlimit="4" stroke-width="3.2" d="M21.333 2.667v5.333"></path>
<path stroke-linejoin="round" stroke-linecap="round" stroke-miterlimit="4" stroke-width="3.2" d="M10.667 2.667v5.333"></path>
<path stroke-linejoin="round" stroke-linecap="round" stroke-miterlimit="4" stroke-width="3.2" d="M4 13.333h24"></path>
</symbol>
<symbol id="icon-home" viewBox="0 0 32 32">
<path stroke-linejoin="round" stroke-linecap="round" stroke-miterlimit="4" stroke-width="2.6667" d="M29.037 27.407v-13.852c0-0.513-0.242-0.996-0.652-1.304l-11.407-8.556c-0.579-0.435-1.376-0.435-1.956 0l-11.407 8.556c-0.41 0.308-0.652 0.791-0.652 1.304v13.852c0 0.9 0.73 1.63 1.63 1.63h6.519c0.9 0 1.63-0.73 1.63-1.63v-4.889c0-0.9 0.73-1.63 1.63-1.63h3.259c0.9 0 1.63 0.73 1.63 1.63v4.889c0 0.9 0.73 1.63 1.63 1.63h6.519c0.9 0 1.63-0.73 1.63-1.63z"></path>
</symbol>
<symbol id="icon-internet" viewBox="0 0 32 32">
<path d="M16 0c-8.822 0-16 7.178-16 16s7.178 16 16 16c8.822 0 16-7.178 16-16s-7.178-16-16-16zM11.74 1.911c-1.255 1.22-2.319 2.971-3.106 5.099-0.907-0.527-1.76-1.156-2.55-1.878 1.602-1.463 3.528-2.576 5.656-3.221zM5.166 6.048c0.937 0.864 1.962 1.603 3.051 2.212-0.632 2.108-1.008 4.517-1.062 7.1h-5.859c0.154-3.583 1.594-6.837 3.869-9.312zM1.296 16.64h5.859c0.053 2.569 0.425 4.966 1.051 7.065-1.094 0.612-2.121 1.356-3.061 2.225-2.264-2.473-3.695-5.719-3.849-9.291zM6.061 26.847c0.792-0.728 1.649-1.361 2.56-1.891 0.788 2.143 1.856 3.906 3.118 5.133-2.138-0.648-4.072-1.768-5.678-3.242zM15.36 30.661c-2.27-0.39-4.289-2.823-5.555-6.322 1.728-0.804 3.605-1.263 5.555-1.346v7.668zM15.36 21.698c-2.087 0.082-4.101 0.562-5.958 1.404-0.566-1.942-0.912-4.141-0.966-6.461h6.925v5.058zM15.36 15.36h-6.925c0.054-2.334 0.405-4.546 0.977-6.498 1.854 0.838 3.865 1.317 5.947 1.399v5.099zM15.36 8.966c-1.945-0.083-3.817-0.54-5.542-1.34 1.267-3.48 3.28-5.898 5.542-6.287v7.627zM30.704 15.36h-5.859c-0.054-2.584-0.43-4.992-1.062-7.101 1.090-0.609 2.114-1.348 3.051-2.212 2.276 2.476 3.715 5.73 3.87 9.313zM25.917 5.132c-0.79 0.723-1.643 1.351-2.55 1.878-0.787-2.127-1.851-3.879-3.106-5.099 2.128 0.645 4.054 1.758 5.656 3.221zM16.64 1.339c2.262 0.388 4.275 2.807 5.542 6.286-1.725 0.8-3.598 1.257-5.542 1.34v-7.627zM16.64 10.261c2.082-0.081 4.093-0.56 5.947-1.399 0.573 1.951 0.923 4.163 0.977 6.498h-6.925v-5.099zM16.64 16.64h6.925c-0.054 2.32-0.4 4.519-0.966 6.461-1.857-0.842-3.872-1.322-5.958-1.404v-5.057zM16.64 30.661v-7.668c1.949 0.083 3.826 0.543 5.555 1.346-1.266 3.499-3.285 5.932-5.555 6.322zM20.26 30.089c1.262-1.226 2.33-2.99 3.118-5.133 0.912 0.53 1.768 1.163 2.56 1.891-1.607 1.474-3.541 2.594-5.679 3.242zM26.855 25.931c-0.94-0.87-1.967-1.613-3.061-2.225 0.625-2.1 0.997-4.497 1.051-7.066h5.859c-0.154 3.572-1.585 6.818-3.849 9.291z"></path>
</symbol>
<symbol id="icon-money" viewBox="0 0 32 32">
<path d="M21.723 10.955c2.272-2.135 3.311-4.878 3.761-6.575 0.255-0.953 0.104-3.715-2.71-4.284-1.391-0.281-3.298 0.078-5.616 0.797-0.757 0.235-1.554 0.235-2.312 0-2.325-0.718-4.225-1.051-5.616-0.797-2.671 0.483-2.965 3.33-2.71 4.284 0.451 1.698 1.489 4.434 3.761 6.569-3.768 1.6-6.425 5.452-6.425 9.958v9.749c0 0.705 0.542 1.345 1.286 1.345h21.646c0.745 0 1.286-0.633 1.352-1.345v-9.749c0.006-4.506-2.651-8.358-6.419-9.951zM9.082 3.635c-0.065-0.242-0.007-0.744 0.49-0.784 0.712-0.052 2.070-0.052 4.519 0.705 1.254 0.385 2.573 0.385 3.826 0 2.449-0.757 3.807-0.79 4.519-0.705 0.686 0.078 0.555 0.542 0.49 0.784-0.47 1.756-1.711 4.904-4.773 6.536-0.098 0-0.189-0.007-0.287-0.007h-3.722c-0.098 0-0.189 0-0.287 0.007-3.062-1.632-4.303-4.78-4.773-6.536zM25.511 29.316h-19.015v-8.41c0-4.381 3.382-7.986 7.646-7.986h3.722c4.192 0 7.646 3.533 7.646 7.986v8.41z"></path>
<path d="M16.003 20.339c-0.549 0-0.999-0.451-0.999-0.999s0.451-0.999 0.999-0.999c0.281 0 0.535 0.111 0.731 0.313 0.385 0.411 1.032 0.431 1.443 0.046s0.431-1.032 0.046-1.443c-0.333-0.353-0.744-0.62-1.195-0.777v-0.411c0-0.568-0.457-1.025-1.025-1.025s-1.025 0.457-1.025 1.025v0.405c-1.175 0.424-2.024 1.548-2.024 2.867 0 1.678 1.365 3.049 3.049 3.049 0.549 0 0.999 0.451 0.999 0.999s-0.451 0.999-0.999 0.999c-0.281 0-0.535-0.111-0.731-0.313-0.385-0.411-1.032-0.431-1.443-0.046s-0.431 1.032-0.046 1.443c0.333 0.353 0.744 0.62 1.195 0.777v0.411c0 0.568 0.457 1.025 1.025 1.025s1.025-0.457 1.025-1.025v-0.405c1.175-0.424 2.024-1.548 2.024-2.867 0-1.685-1.371-3.049-3.049-3.049z"></path>
</symbol>
<symbol id="icon-more" viewBox="0 0 32 32">
<path stroke-linejoin="miter" stroke-linecap="butt" stroke-miterlimit="4" stroke-width="2.6667" d="M16 1.333c8.1 0 14.667 6.566 14.667 14.667s-6.566 14.667-14.667 14.667c-8.1 0-14.667-6.566-14.667-14.667s6.566-14.667 14.667-14.667z"></path>
<path stroke-linejoin="miter" stroke-linecap="butt" stroke-miterlimit="4" stroke-width="2.6667" d="M16 13.333v12M16 8v2.667"></path>
</symbol>
<symbol id="icon-open_menu" viewBox="0 0 33 32">
<path stroke-linejoin="miter" stroke-linecap="butt" stroke-miterlimit="4" stroke-width="2.56" d="M3.84 7.68h25.6"></path>
<path stroke-linejoin="miter" stroke-linecap="butt" stroke-miterlimit="4" stroke-width="2.56" d="M3.84 16.64h25.6"></path>
<path stroke-linejoin="miter" stroke-linecap="butt" stroke-miterlimit="4" stroke-width="2.56" d="M3.84 25.6h25.6"></path>
</symbol>
<symbol id="icon-play" viewBox="0 0 27 32">
<path stroke-linejoin="miter" stroke-linecap="butt" stroke-miterlimit="4" stroke-width="2.2857" d="M1.143 2.019v27.429l22.857-13.714-22.857-13.714z"></path>
</symbol>
<symbol id="icon-slider_btn" viewBox="0 0 14 32">
<path stroke-linejoin="miter" stroke-linecap="butt" stroke-miterlimit="4" stroke-width="1.7778" d="M11.778 0.52l-10.667 14.791 10.667 13.653"></path>
</symbol>
<symbol id="icon-star" viewBox="0 0 32 32">
<path d="M16 0l4.891 10.61 11.109 1.614-8.085 8.17 1.973 11.606-9.888-5.561-9.889 5.561 1.975-11.606-8.085-8.17 11.109-1.614 4.891-10.61z"></path>
</symbol>
<symbol id="icon-trend" viewBox="0 0 32 32">
<path d="M27.538 9.070c-3.486 5.068-6.968 10.144-10.462 15.2l-4.989-7.221-8.567 12.398-1.864-2.698c3.477-5.032 6.954-10.063 10.431-15.095l4.988 7.22 8.556-12.441-3.029 0.063c-0.010-1.263-0.021-2.527-0.031-3.79 2.456-0.051 4.911-0.102 7.366-0.152l0.407 10.643c-0.881 0.070-1.761 0.14-2.642 0.21l-0.166-4.337z"></path>
</symbol>
<symbol id="icon-tv" viewBox="0 0 32 32">
<path d="M14.988 4.447c-1.12 0-2.085 0.642-2.529 1.567h5.058c-0.444-0.926-1.409-1.567-2.529-1.567z"></path>
<path d="M13.599 5.697c-0.104-0.040-0.195-0.092-0.283-0.147s-0.17-0.116-0.248-0.181c-0.079-0.064-0.152-0.134-0.225-0.204l-0.219-0.21-0.874-0.842c-0.291-0.281-0.58-0.563-0.87-0.846s-0.58-0.564-0.868-0.848l-0.863-0.852-0.859-0.856c-0.57-0.573-1.14-1.147-1.7-1.73-0.128-0.133-0.121-0.342 0.016-0.466 0.13-0.118 0.33-0.117 0.46-0.003 0.608 0.536 1.206 1.082 1.804 1.628l0.893 0.823 0.889 0.827c0.296 0.276 0.59 0.554 0.885 0.831s0.589 0.554 0.882 0.833l1.098 1.047c0.073 0.069 0.146 0.14 0.213 0.216s0.131 0.155 0.19 0.239c0.058 0.085 0.113 0.172 0.155 0.273 0.077 0.183-0.013 0.392-0.201 0.468-0.091 0.036-0.189 0.034-0.274 0.002z"></path>
<path d="M15.902 5.227c0.042-0.1 0.097-0.188 0.155-0.273s0.122-0.163 0.19-0.239c0.067-0.076 0.14-0.146 0.213-0.216l0.219-0.21 0.878-0.837c0.293-0.279 0.588-0.556 0.882-0.833s0.588-0.556 0.884-0.831l0.889-0.827 0.893-0.823c0.598-0.546 1.196-1.092 1.804-1.628 0.139-0.122 0.353-0.112 0.479 0.023 0.119 0.128 0.115 0.323-0.003 0.447-0.56 0.583-1.13 1.157-1.7 1.73l-0.859 0.856-0.863 0.852c-0.288 0.284-0.578 0.565-0.868 0.848s-0.578 0.565-0.87 0.846l-1.092 1.052c-0.072 0.070-0.146 0.14-0.225 0.204s-0.161 0.125-0.248 0.181c-0.088 0.055-0.179 0.108-0.283 0.147-0.19 0.072-0.403-0.018-0.478-0.203-0.036-0.089-0.032-0.185 0.002-0.267z"></path>
<path d="M6.109 27.849v1.285c0 0.386 0.473 0.585 0.763 0.322l1.302-1.183c0.167-0.152 0.057-0.424-0.172-0.424h-1.893z"></path>
<path d="M25.891 27.849v1.285c0 0.386-0.473 0.585-0.763 0.322l-1.302-1.183c-0.167-0.152-0.057-0.424 0.172-0.424h1.893z"></path>
<path d="M29.568 21.83h-2.514c-0.176 0-0.318-0.139-0.318-0.31s0.142-0.31 0.318-0.31h2.514c0.176 0 0.318 0.139 0.318 0.31s-0.143 0.31-0.318 0.31zM29.568 23.026h-2.514c-0.176 0-0.318-0.139-0.318-0.31s0.142-0.31 0.318-0.31h2.514c0.176 0 0.318 0.139 0.318 0.31s-0.143 0.31-0.318 0.31zM29.568 24.223h-2.514c-0.176 0-0.318-0.139-0.318-0.31s0.142-0.31 0.318-0.31h2.514c0.176 0 0.318 0.139 0.318 0.31s-0.143 0.31-0.318 0.31zM25.819 22.784c0 1.175-0.98 2.127-2.188 2.127h-18.762c-1.208 0-2.188-0.952-2.188-2.127v-11.796c0-1.175 0.98-2.127 2.188-2.127h18.762c1.208 0 2.188 0.952 2.188 2.127v11.796zM28.311 17.925c0.598 0 1.083 0.472 1.083 1.053s-0.485 1.053-1.083 1.053c-0.598 0-1.083-0.472-1.083-1.053s0.485-1.053 1.083-1.053zM28.311 14.039c0.598 0 1.083 0.472 1.083 1.053s-0.485 1.053-1.083 1.053c-0.598 0-1.083-0.472-1.083-1.053s0.485-1.053 1.083-1.053zM28.311 10.152c0.598 0 1.083 0.472 1.083 1.053s-0.485 1.053-1.083 1.053c-0.598 0-1.083-0.472-1.083-1.053s0.485-1.053 1.083-1.053zM26.699 6.356h-21.398c-2.474 0-4.48 1.95-4.48 4.355v12.348c0 2.405 2.006 4.355 4.48 4.355h21.399c2.474 0 4.48-1.95 4.48-4.355v-12.348c0-2.405-2.006-4.355-4.48-4.355z"></path>
</symbol>
</defs>
</svg>
